<svg xmlns="http://www.w3.org/2000/svg" width="240" height="240" viewBox="0 0 240 240">
  <defs>
    <style>
      .dot{fill:#FFD23F; opacity:0.35;}
      .heart{fill:#FF6B6B; opacity:0.28;}
      .star{fill:#6C5CE7; opacity:0.25;}
      .ring{fill:none; stroke:#00D2A8; stroke-width:2; opacity:0.25;}
    </style>
  </defs>
  <rect width="240" height="240" fill="#FFF8EC"/>

  <circle class="dot" cx="30" cy="30" r="5"/>
  <circle class="dot" cx="150" cy="60" r="4"/>
  <circle class="dot" cx="90" cy="180" r="6"/>
  <circle class="dot" cx="210" cy="200" r="4"/>

  <circle class="ring" cx="200" cy="40" r="8"/>
  <circle class="ring" cx="60" cy="140" r="7"/>

  <path class="heart" transform="translate(100,20) scale(0.9)" d="M12 21s-8-5.5-11-10C-1 6 2 1 7 1c2.7 0 4.4 1.4 5 2.6C12.6 2.4 14.3 1 17 1c5 0 8 5 6 10-3 4.5-11 10-11 10z"/>
  <path class="heart" transform="translate(15,95) scale(1.1)" d="M12 21s-8-5.5-11-10C-1 6 2 1 7 1c2.7 0 4.4 1.4 5 2.6C12.6 2.4 14.3 1 17 1c5 0 8 5 6 10-3 4.5-11 10-11 10z"/>
  <path class="heart" transform="translate(170,150) scale(0.8)" d="M12 21s-8-5.5-11-10C-1 6 2 1 7 1c2.7 0 4.4 1.4 5 2.6C12.6 2.4 14.3 1 17 1c5 0 8 5 6 10-3 4.5-11 10-11 10z"/>

  <path class="star" transform="translate(55,50)" d="M8 0l2.2 5.3L16 6l-4.3 3.8L13 16 8 12.6 3 16l1.3-6.2L0 6l5.8-0.7z"/>
  <path class="star" transform="translate(190,110) scale(1.2)" d="M8 0l2.2 5.3L16 6l-4.3 3.8L13 16 8 12.6 3 16l1.3-6.2L0 6l5.8-0.7z"/>
  <path class="star" transform="translate(115,200) scale(0.9)" d="M8 0l2.2 5.3L16 6l-4.3 3.8L13 16 8 12.6 3 16l1.3-6.2L0 6l5.8-0.7z"/>
</svg>
